<svg width="64" height="64" viewBox="0 0 64 64" fill="none" xmlns="http://www.w3.org/2000/svg">
    <rect width="64" height="64" rx="14" fill="#1F1721" />
    <path
        d="M154.282 251.072C154.282 251.072 177.873 236.243 215.952 217.595C248.7 201.56 254.201 185.44 255.099 181.239C255.143 181.035 255.438 181.043 255.47 181.249C257.293 192.8 253.986 232.974 252.013 242.083C250.008 251.327 246.134 258.578 240.631 265.207C235.128 271.834 228.656 274.253 223.279 275.657C210.369 279.025 179.868 285.935 153.231 300.333C126.134 314.981 111.425 342.048 108.953 346.897C108.861 347.076 108.593 347.006 108.595 346.805C109.314 314.962 113.931 300.985 119.388 287.644C125.884 271.764 111.772 267.585 102.155 267.585H62.3613C29.5502 267.585 -1.59507 245.664 0.0633979 221.203C0.143295 220.04 1.02701 219.089 2.17462 218.898C12.5951 217.171 22.4055 212.426 22.4055 212.426C38.4551 205.954 51.2193 185.127 55.2625 180.578C59.3058 176.029 66.5716 161.18 83.5703 157.325C101.06 153.359 117.301 139.973 121.989 121.434C125.921 105.883 144.624 18.9581 148.192 2.34895C148.546 0.704984 150.183 -0.309476 151.817 0.0851729C167.733 3.92271 205.036 29.2698 225.056 61.1105C242.885 89.4648 255.85 128.753 242.108 166.189C224.526 214.084 154.286 251.072 154.286 251.072H154.282Z"
        fill="#F4EEE5"
        transform="translate(13 6) scale(0.15)"
    />
</svg>
