<svg width="326" height="398" viewBox="0 0 326 398" fill="none" xmlns="http://www.w3.org/2000/svg">
<path d="M221.483 284.966C221.483 284.966 224.843 357.436 237.803 390.546C239.153 393.996 236.603 397.706 232.903 397.706H212.033C209.443 397.706 207.243 395.826 206.833 393.266L191.713 297.916L221.493 284.966H221.483Z" fill="#6B4E66"/>
<path d="M215.093 96.0561L248.783 1.7861C249.413 0.0261039 251.593 -0.5739 253.023 0.6261C262.443 8.5361 290.123 38.2861 279.383 108.116L215.103 96.0561H215.093Z" fill="#6B4E66"/>
<path d="M96.6734 397.626C93.0334 397.676 89.8133 395.276 88.8133 391.776C84.2433 375.736 75.7833 329.496 111.123 281.746C154.893 222.616 169.483 198.936 168.723 158.746C167.973 119.436 141.843 39.1661 191.243 1.47609C192.913 0.196093 195.353 0.906066 196.043 2.88607L232.363 79.7961C235.223 85.8561 241.063 89.9161 247.723 90.6161C258.993 91.8161 276.873 96.5261 288.023 113.596C300.693 132.986 314.173 137.756 321.133 138.856C324.063 139.326 325.843 142.306 325.003 145.146C321.853 155.736 308.133 176.586 248.873 176.136C248.873 176.136 236.533 193.016 246.853 235.626C251.053 252.946 220.483 297.576 207.933 314.936C204.453 319.756 202.733 325.616 203.053 331.556C203.773 345.196 206.093 370.676 213.543 389.386C215.123 393.366 212.233 397.686 207.953 397.686H188.863C185.893 397.686 183.373 395.526 182.893 392.596C176.353 352.146 180.923 284.186 133.603 284.176C132.383 284.176 132.153 285.926 133.343 286.216C145.633 289.226 168.683 298.936 161.903 338.076C159.613 351.296 139.713 370.556 134.663 379.936C131.753 385.336 142.173 384.796 142.173 384.796C142.173 384.796 142.363 384.946 150.443 383.426C156.303 382.326 157.363 388.666 157.423 392.996C157.453 395.096 155.793 396.816 153.693 396.846L96.6833 397.626H96.6734Z" fill="url(#paint0_linear_2008_214)"/>
<mask id="mask0_2008_214" style="mask-type:luminance" maskUnits="userSpaceOnUse" x="84" y="0" width="242" height="398">
<path d="M96.6734 397.626C93.0334 397.676 89.8133 395.276 88.8133 391.776C84.2433 375.736 75.7833 329.496 111.123 281.746C154.893 222.616 169.483 198.936 168.723 158.746C167.973 119.436 141.843 39.1661 191.243 1.47609C192.913 0.196093 195.353 0.906066 196.043 2.88607L232.363 79.7961C235.223 85.8561 241.063 89.9161 247.723 90.6161C258.993 91.8161 276.873 96.5261 288.023 113.596C300.693 132.986 314.173 137.756 321.133 138.856C324.063 139.326 325.843 142.306 325.003 145.146C321.853 155.736 308.133 176.586 248.873 176.136C248.873 176.136 236.533 193.016 246.853 235.626C251.053 252.946 220.483 297.576 207.933 314.936C204.453 319.756 202.733 325.616 203.053 331.556C203.773 345.196 206.093 370.676 213.543 389.386C215.123 393.366 212.233 397.686 207.953 397.686H188.863C185.893 397.686 183.373 395.526 182.893 392.596C176.353 352.146 180.923 284.186 133.603 284.176C132.383 284.176 132.153 285.926 133.343 286.216C145.633 289.226 168.683 298.936 161.903 338.076C159.613 351.296 139.713 370.556 134.663 379.936C131.753 385.336 142.173 384.796 142.173 384.796C142.173 384.796 142.363 384.946 150.443 383.426C156.303 382.326 157.363 388.666 157.423 392.996C157.453 395.096 155.793 396.816 153.693 396.846L96.6833 397.626H96.6734Z" fill="white"/>
</mask>
<g mask="url(#mask0_2008_214)">
<path d="M159.423 91.886C159.423 91.886 174.793 96.8161 187.603 85.5361C192.063 81.6061 194.583 75.9261 194.623 69.9761C194.733 50.0061 194.683 -13.924 194.683 -13.924L154.863 -8.39395L148.833 57.9461L151.003 90.4261L159.423 91.8661V91.886Z" fill="url(#paint1_linear_2008_214)"/>
<path d="M311.883 198.986L258.263 222.096C194.983 199.466 209.193 163.506 221.633 166.226C292.583 181.716 321.913 156.606 321.913 156.606L311.883 198.986Z" fill="#6B4E66"/>
</g>
<path d="M252.453 134.966C254.663 134.966 256.453 133.175 256.453 130.966C256.453 128.757 254.663 126.966 252.453 126.966C250.244 126.966 248.453 128.757 248.453 130.966C248.453 133.175 250.244 134.966 252.453 134.966Z" fill="#100F1B"/>
<path d="M265.623 143.906C265.623 143.906 271.663 152.286 288.023 153.646" stroke="#100F1B" stroke-width="2" stroke-linecap="round" stroke-linejoin="round"/>
<path d="M12.6633 160.226C11.0633 159.636 9.4833 161.156 10.0033 162.786C12.5933 171.016 16.7933 191.956 8.47333 226.696C-2.41667 272.186 -15.2067 339.786 74.0133 364.766C75.6333 365.216 77.1033 363.646 76.5033 362.066C72.5133 351.516 62.8133 320.226 72.1933 285.216C85.2933 236.346 88.9733 188.106 12.6633 160.226Z" fill="url(#paint2_linear_2008_214)"/>
<defs>
<linearGradient id="paint0_linear_2008_214" x1="204.863" y1="199.266" x2="204.863" y2="439.966" gradientUnits="userSpaceOnUse">
<stop offset="0.14" stop-color="#9B8196"/>
<stop offset="0.8" stop-color="#6B4E66"/>
</linearGradient>
<linearGradient id="paint1_linear_2008_214" x1="148.833" y1="39.5261" x2="194.693" y2="39.5261" gradientUnits="userSpaceOnUse">
<stop offset="0.14" stop-color="#9B8196"/>
<stop offset="0.8" stop-color="#6B4E66"/>
</linearGradient>
<linearGradient id="paint2_linear_2008_214" x1="40.1833" y1="255.126" x2="40.1833" y2="410.016" gradientUnits="userSpaceOnUse">
<stop offset="0.14" stop-color="#9B8196"/>
<stop offset="0.8" stop-color="#D8582B"/>
</linearGradient>
</defs>
</svg>
