<svg width="213" height="324" viewBox="0 0 213 324" fill="none" xmlns="http://www.w3.org/2000/svg">
<path d="M187.523 227.785L191.613 243.525C193.593 251.155 191.913 259.275 187.063 265.495L171.083 285.985L169.413 252.565L180.973 226.665L187.523 227.775V227.785Z" fill="#6B4E66"/>
<path d="M9.75325 131.185C8.45325 130.715 7.18334 131.935 7.59334 133.255C9.68334 139.915 13.0833 156.855 6.35335 184.965C-2.45665 221.775 -12.8067 276.465 59.3833 296.685C60.6933 297.055 61.8833 295.775 61.3933 294.495C58.1633 285.955 50.3133 260.635 57.9133 232.315C68.5133 192.775 71.4934 153.745 9.74336 131.175L9.75325 131.185Z" fill="url(#paint0_linear_2008_243)"/>
<path d="M186.633 233.955C220.863 194.935 212.913 169.715 209.653 157.535C206.963 147.495 185.743 102.665 186.803 73.2652C188.363 30.0252 159.543 6.92522 150.193 0.585223C148.723 -0.414777 146.703 0.175209 146.003 1.80521C140.323 14.9952 117.953 66.7952 115.253 71.2552C112.153 76.3652 102.463 76.2352 94.0332 83.1852C80.6132 94.2452 82.4632 109.865 57.3832 115.015C55.1432 115.475 53.9433 117.905 54.8633 119.995C58.1933 127.575 68.4932 144.695 97.9132 142.795C135.133 140.395 139.853 144.195 141.493 144.595C151.923 147.105 155.013 172.725 111.393 205.065C69.2232 236.325 54.5933 262.255 78.5933 323.275H148.663C150.003 323.275 150.983 322.035 150.683 320.735C150.043 317.935 148.603 313.655 145.593 312.365C140.453 310.155 135.303 313.245 127.013 313.635C124.583 313.745 122.983 311.135 124.173 309.015C127.173 303.655 132.223 294.125 136.113 284.135C145.583 259.825 127.693 235.865 103.523 239.235C102.473 239.385 101.463 239.555 100.513 239.745C99.3132 239.985 98.7232 238.345 99.8032 237.775C99.8632 237.745 99.9233 237.715 99.9833 237.675C103.733 235.665 108.023 234.655 112.413 234.565C126.273 234.275 138.433 242.205 142.753 255.385L164.063 320.365C164.633 322.105 166.263 323.285 168.093 323.285H183.203C186.353 323.285 188.393 319.995 187.013 317.165C181.833 306.605 172.273 284.105 173.193 263.335C173.683 252.235 179.033 242.665 186.653 233.975L186.633 233.955Z" fill="url(#paint1_linear_2008_243)"/>
<mask id="mask0_2008_243" style="mask-type:luminance" maskUnits="userSpaceOnUse" x="54" y="0" width="159" height="324">
<path d="M186.633 233.955C220.863 194.935 212.913 169.715 209.653 157.535C206.963 147.495 185.743 102.665 186.803 73.2652C188.363 30.0252 159.543 6.92522 150.193 0.585223C148.723 -0.414777 146.703 0.175209 146.003 1.80521C140.323 14.9952 117.953 66.7952 115.253 71.2552C112.153 76.3652 102.463 76.2352 94.0332 83.1852C80.6132 94.2452 82.4632 109.865 57.3832 115.015C55.1432 115.475 53.9433 117.905 54.8633 119.995C58.1933 127.575 68.4932 144.695 97.9132 142.795C135.133 140.395 139.853 144.195 141.493 144.595C151.923 147.105 155.013 172.725 111.393 205.065C69.2232 236.325 54.5933 262.255 78.5933 323.275H148.663C150.003 323.275 150.983 322.035 150.683 320.735C150.043 317.935 148.603 313.655 145.593 312.365C140.453 310.155 135.303 313.245 127.013 313.635C124.583 313.745 122.983 311.135 124.173 309.015C127.173 303.655 132.223 294.125 136.113 284.135C145.583 259.825 127.693 235.865 103.523 239.235C102.473 239.385 101.463 239.555 100.513 239.745C99.3132 239.985 98.7232 238.345 99.8032 237.775C99.8632 237.745 99.9233 237.715 99.9833 237.675C103.733 235.665 108.023 234.655 112.413 234.565C126.273 234.275 138.433 242.205 142.753 255.385L164.063 320.365C164.633 322.105 166.263 323.285 168.093 323.285H183.203C186.353 323.285 188.393 319.995 187.013 317.165C181.833 306.605 172.273 284.105 173.193 263.335C173.683 252.235 179.033 242.665 186.653 233.975L186.633 233.955Z" fill="white"/>
</mask>
<g mask="url(#mask0_2008_243)">
<path d="M199.723 77.425H166.583C155.823 77.425 147.093 68.6951 147.093 57.9351V-2.80495H199.723V77.4151V77.425Z" fill="#6B4E66"/>
<path d="M138.123 165.845L104.923 181.705C67.5133 174.375 53.7434 144.015 75.4934 143.655C119.283 142.945 143.703 136.065 156.743 130.005C159.933 128.515 163.373 131.535 162.363 134.905L161.123 139.045C157.583 150.815 149.233 160.555 138.133 165.855L138.123 165.845Z" fill="#6B4E66"/>
</g>
<path d="M95.9133 106.395C95.9133 108.185 97.3633 109.635 99.1433 109.635C100.923 109.635 102.383 108.185 102.383 106.395C102.383 104.605 100.933 103.155 99.1433 103.155C97.3533 103.155 95.9133 104.605 95.9133 106.395Z" fill="#100F1B"/>
<path d="M93.3535 116.865C93.3535 116.865 89.2534 124.235 78.0234 123.705" stroke="#100F1B" stroke-width="1.62" stroke-linecap="round" stroke-linejoin="round"/>
<defs>
<linearGradient id="paint0_linear_2008_243" x1="32.0133" y1="207.985" x2="32.0133" y2="333.305" gradientUnits="userSpaceOnUse">
<stop offset="0.14" stop-color="#9B8196"/>
<stop offset="0.8" stop-color="#D8582B"/>
</linearGradient>
<linearGradient id="paint1_linear_2008_243" x1="133.683" y1="0.0952197" x2="133.683" y2="323.265" gradientUnits="userSpaceOnUse">
<stop offset="0.43" stop-color="#9B8196"/>
<stop offset="0.98" stop-color="#6B4E66"/>
</linearGradient>
</defs>
</svg>
