<svg width="407" height="328" viewBox="0 0 407 328" fill="none" xmlns="http://www.w3.org/2000/svg">
<path d="M98.8434 192.685C98.8434 192.685 92.3334 247.445 79.4634 260.755C75.7234 264.625 72.3434 266.195 69.9034 266.815C67.4634 267.435 65.7333 269.365 65.4733 271.805L59.9233 323.675C59.6733 325.985 61.3733 327.875 63.6933 327.875H79.7533C82.5833 327.875 84.5234 325.015 83.4634 322.395C81.2034 316.815 78.7633 307.765 80.9733 297.765C84.6233 281.235 108.703 261.585 129.463 247.745L98.8334 192.705L98.8434 192.685Z" fill="#6B4E66"/>
<path d="M233.383 223.465C231.263 222.775 232.093 246.205 225.693 278.055C222.283 295.005 220.503 307.835 222.033 316.145C222.543 318.885 223.493 321.135 224.483 322.875C226.033 325.595 228.923 327.265 232.043 327.265H244.683C248.133 327.265 250.403 323.685 248.933 320.565C246.033 314.425 243.553 303.745 247.633 287.195C254.793 258.095 269.093 239.055 269.093 239.055C269.093 239.055 249.783 232.765 233.383 223.465Z" fill="#6B4E66"/>
<path d="M403.493 119.145C378.533 113.815 380.383 97.6151 367.023 86.1451C358.643 78.9451 348.993 79.0751 345.913 73.7851C343.223 69.1651 320.973 15.4651 315.313 1.78507C314.613 0.0850687 312.593 -0.534935 311.143 0.515064C301.733 7.32506 277.753 19.5951 274.713 75.8651C274.003 88.9751 270.053 113.515 249.233 130.455C218.013 155.855 158.313 139.195 125.533 146.405C103.313 151.295 95.6133 163.425 92.8433 174.155C91.5633 179.125 92.0732 189.695 94.5532 194.195C101.963 207.635 119.383 239.495 123.473 248.015C127.843 257.105 126.763 260.845 120.753 266.195C118.333 268.345 117.693 271.865 119.243 274.705L146.753 325.265C147.513 326.665 148.983 327.865 150.583 327.865H165.013C168.643 327.865 170.703 323.355 168.453 320.495C166.373 317.855 163.843 314.825 161.183 312.065C154.523 305.175 139.093 283.385 151.713 265.215C164.643 246.595 187.233 215.845 158.953 183.415C158.953 183.415 170.893 186.595 194.103 205.445C204.103 213.565 215.543 222.625 228.043 228.415C250.763 241.175 288.203 251.755 295.223 257.445C304.773 265.195 308.143 267.685 309.773 285.125C310.193 289.575 317.843 295.305 323.863 299.145C327.313 301.355 331.843 299.005 332.083 294.925C332.483 288.325 332.293 278.595 329.413 268.345C326.593 258.325 323.783 246.315 310.723 239.245C300.103 233.505 291.253 228.095 283.923 223.185C302.553 208.985 308.743 176.755 314.843 157.315C317.153 149.965 324.093 145.075 331.793 145.425C341.143 145.845 353.213 146.385 360.093 146.675C389.403 147.915 402.693 132.155 406.003 124.295C406.923 122.125 405.723 119.605 403.493 119.135V119.145Z" fill="url(#paint0_linear_2008_310)"/>
<mask id="mask0_2008_310" style="mask-type:luminance" maskUnits="userSpaceOnUse" x="92" y="-1" width="315" height="329">
<path d="M403.493 119.145C378.533 113.815 380.383 97.6151 367.023 86.1451C358.643 78.9451 348.993 79.0751 345.913 73.7851C343.223 69.1651 320.973 15.4651 315.313 1.78507C314.613 0.0850687 312.593 -0.534935 311.143 0.515064C301.733 7.32506 277.753 19.5951 274.713 75.8651C274.003 88.9751 270.053 113.515 249.233 130.455C218.013 155.855 158.313 139.195 125.533 146.405C103.313 151.295 95.6133 163.425 92.8433 174.155C91.5633 179.125 92.0732 189.695 94.5532 194.195C101.963 207.635 119.383 239.495 123.473 248.015C127.843 257.105 126.763 260.845 120.753 266.195C118.333 268.345 117.693 271.865 119.243 274.705L146.753 325.265C147.513 326.665 148.983 327.865 150.583 327.865H165.013C168.643 327.865 170.703 323.355 168.453 320.495C166.373 317.855 163.843 314.825 161.183 312.065C154.523 305.175 139.093 283.385 151.713 265.215C164.643 246.595 187.233 215.845 158.953 183.415C158.953 183.415 170.893 186.595 194.103 205.445C204.103 213.565 215.543 222.625 228.043 228.415C250.763 241.175 288.203 251.755 295.223 257.445C304.773 265.195 308.143 267.685 309.773 285.125C310.193 289.575 317.843 295.305 323.863 299.145C327.313 301.355 331.843 299.005 332.083 294.925C332.483 288.325 332.293 278.595 329.413 268.345C326.593 258.325 323.783 246.315 310.723 239.245C300.103 233.505 291.253 228.095 283.923 223.185C302.553 208.985 308.743 176.755 314.843 157.315C317.153 149.965 324.093 145.075 331.793 145.425C341.143 145.845 353.213 146.385 360.093 146.675C389.403 147.915 402.693 132.155 406.003 124.295C406.923 122.125 405.723 119.605 403.493 119.135V119.145Z" fill="white"/>
</mask>
<g mask="url(#mask0_2008_310)">
<path d="M262.633 -2.43481H314.993V61.2552C314.993 72.0152 306.263 80.7452 295.503 80.7452H262.633V-2.42482V-2.43481Z" fill="#6B4E66"/>
<path d="M327.023 168.755L360.223 184.615C397.633 177.285 411.403 146.925 389.653 146.565C345.863 145.855 321.443 138.975 308.403 132.915C305.213 131.425 297.793 134.235 302.153 144.065C306.513 153.895 315.923 163.455 327.013 168.755H327.023Z" fill="#6B4E66"/>
</g>
<path d="M363.303 111.915C365.082 111.915 366.523 110.415 366.523 108.565C366.523 106.715 365.082 105.215 363.303 105.215C361.525 105.215 360.083 106.715 360.083 108.565C360.083 110.415 361.525 111.915 363.303 111.915Z" fill="#100F1B"/>
<path d="M370.743 119.255C370.743 119.255 374.823 126.895 386.003 126.345" stroke="#100F1B" stroke-width="1.64" stroke-linecap="round" stroke-linejoin="round"/>
<path d="M2.79324 11.9452C1.41324 11.7952 0.473268 13.2952 1.19327 14.4852C4.84327 20.4752 12.2433 36.1652 12.4633 65.1952C12.7533 103.205 15.8633 159.015 91.1133 161.295C92.4833 161.335 93.3233 159.805 92.5533 158.675C87.3433 151.135 73.5933 128.345 74.1533 98.9052C74.9433 57.8052 68.4232 19.0452 2.79324 11.9452Z" fill="url(#paint1_linear_2008_310)"/>
<path d="M257.613 199.885C257.613 199.885 270.673 214.835 283.913 223.195" stroke="#6B4E66" stroke-width="2" stroke-linecap="round" stroke-linejoin="round"/>
<defs>
<linearGradient id="paint0_linear_2008_310" x1="249.243" y1="0.00506563" x2="249.243" y2="327.865" gradientUnits="userSpaceOnUse">
<stop offset="0.43" stop-color="#9B8196"/>
<stop offset="0.98" stop-color="#6B4E66"/>
</linearGradient>
<linearGradient id="paint1_linear_2008_310" x1="43.0196" y1="81.4633" x2="73.2523" y2="203.628" gradientUnits="userSpaceOnUse">
<stop offset="0.14" stop-color="#9B8196"/>
<stop offset="0.8" stop-color="#D8582B"/>
</linearGradient>
</defs>
</svg>
