<svg width="225" height="397" viewBox="0 0 225 397" fill="none" xmlns="http://www.w3.org/2000/svg">
<path d="M221.943 396.836C223.643 396.836 224.953 395.276 224.593 393.606C223.923 390.496 222.373 386.246 220.973 384.776C219.663 383.396 217.663 382.946 215.883 383.616C211.083 385.416 206.753 387.076 203.713 386.356C201.153 385.746 199.603 383.136 200.253 380.586C202.053 373.576 206.073 357.676 211.883 333.656C218.353 306.906 202.793 294.836 196.413 291.116C194.893 290.226 194.123 288.476 194.453 286.746C203.823 238.246 190.413 200.506 186.063 178.486C181.623 155.996 192.173 141.846 192.173 141.846H104.303C104.303 141.846 114.853 156.006 110.413 178.486C106.063 200.506 92.6534 238.246 102.023 286.746C102.353 288.476 101.593 290.236 100.063 291.116C93.6834 294.836 78.1334 306.906 84.5934 333.656C90.3934 357.676 94.4234 373.576 96.2234 380.586C96.8734 383.136 95.3234 385.746 92.7634 386.356C89.7134 387.086 85.3934 385.416 80.5934 383.616C78.8134 382.946 76.8134 383.396 75.5034 384.776C74.1034 386.246 72.5534 390.496 71.8834 393.606C71.5234 395.266 72.8334 396.836 74.5334 396.836H221.943Z" fill="url(#paint0_linear_2008_191)"/>
<mask id="mask0_2008_191" style="mask-type:luminance" maskUnits="userSpaceOnUse" x="71" y="141" width="154" height="256">
<path d="M221.943 396.836C223.643 396.836 224.953 395.276 224.593 393.606C223.923 390.496 222.373 386.246 220.973 384.776C219.663 383.396 217.663 382.946 215.883 383.616C211.083 385.416 206.753 387.076 203.713 386.356C201.153 385.746 199.603 383.136 200.253 380.586C202.053 373.576 206.073 357.676 211.883 333.656C218.353 306.906 202.793 294.836 196.413 291.116C194.893 290.226 194.123 288.476 194.453 286.746C203.823 238.246 190.413 200.506 186.063 178.486C181.623 155.996 192.173 141.846 192.173 141.846H104.303C104.303 141.846 114.853 156.006 110.413 178.486C106.063 200.506 92.6534 238.246 102.023 286.746C102.353 288.476 101.593 290.236 100.063 291.116C93.6834 294.836 78.1334 306.906 84.5934 333.656C90.3934 357.676 94.4234 373.576 96.2234 380.586C96.8734 383.136 95.3234 385.746 92.7634 386.356C89.7134 387.086 85.3934 385.416 80.5934 383.616C78.8134 382.946 76.8134 383.396 75.5034 384.776C74.1034 386.246 72.5534 390.496 71.8834 393.606C71.5234 395.266 72.8334 396.836 74.5334 396.836H221.943Z" fill="white"/>
</mask>
<g mask="url(#mask0_2008_191)">
<path d="M203.883 159.426L170.663 187.136C157.683 197.956 138.823 197.916 125.883 187.046L93.0234 159.426V124.196H203.873V159.426H203.883Z" fill="#6B4E66"/>
</g>
<path d="M190.463 4.02616L157.943 84.0962C157.263 85.7562 155.653 86.8462 153.853 86.8462H142.623C140.823 86.8462 139.213 85.7562 138.533 84.0962L106.013 4.02616C104.763 0.956161 100.883 -0.0338529 98.3534 2.10615C87.6734 11.1061 65.2534 36.7462 73.3234 88.9062C76.2334 107.766 85.3834 128.366 91.8034 136.046C98.2434 143.756 122.533 162.576 137.063 173.576C143.683 178.586 152.803 178.586 159.423 173.576C173.953 162.576 198.243 143.756 204.683 136.046C211.103 128.366 220.253 107.766 223.163 88.9062C231.223 36.7462 208.813 11.1061 198.133 2.10615C195.603 -0.0338529 191.713 0.956161 190.473 4.02616H190.463Z" fill="#9B8196"/>
<mask id="mask1_2008_191" style="mask-type:luminance" maskUnits="userSpaceOnUse" x="71" y="0" width="154" height="178">
<path d="M190.463 4.02616L157.943 84.0962C157.263 85.7562 155.653 86.8462 153.853 86.8462H142.623C140.823 86.8462 139.213 85.7562 138.533 84.0962L106.013 4.02616C104.763 0.956161 100.883 -0.0338529 98.3534 2.10615C87.6734 11.1061 65.2534 36.7462 73.3234 88.9062C76.2334 107.766 85.3834 128.366 91.8034 136.046C98.2434 143.756 122.533 162.576 137.063 173.576C143.683 178.586 152.803 178.586 159.423 173.576C173.953 162.576 198.243 143.756 204.683 136.046C211.103 128.366 220.253 107.766 223.163 88.9062C231.223 36.7462 208.813 11.1061 198.133 2.10615C195.603 -0.0338529 191.713 0.956161 190.473 4.02616H190.463Z" fill="white"/>
</mask>
<g mask="url(#mask1_2008_191)">
<path d="M59.8833 -7.65381H103.423V72.0062C103.423 82.7662 94.6933 91.4962 83.9333 91.4962H59.8833V-7.65381Z" fill="#6B4E66"/>
<path d="M236.433 91.4962H212.383C201.623 91.4962 192.893 82.7662 192.893 72.0062V-7.65378H236.433V91.4962Z" fill="#6B4E66"/>
</g>
<path d="M118.293 134.966C120.502 134.966 122.293 133.175 122.293 130.966C122.293 128.757 120.502 126.966 118.293 126.966C116.084 126.966 114.293 128.757 114.293 130.966C114.293 133.175 116.084 134.966 118.293 134.966Z" fill="#100F1B"/>
<path d="M178.183 134.966C180.392 134.966 182.183 133.175 182.183 130.966C182.183 128.757 180.392 126.966 178.183 126.966C175.974 126.966 174.183 128.757 174.183 130.966C174.183 133.175 175.974 134.966 178.183 134.966Z" fill="#100F1B"/>
<path d="M116.733 147.766C116.733 147.766 118.873 158.956 128.393 166.306" stroke="#100F1B" stroke-width="2" stroke-linecap="round" stroke-linejoin="round"/>
<path d="M108.403 239.676C107.223 237.026 120.853 358.566 120.853 358.566C121.923 368.816 120.913 379.166 117.863 389.016L117.763 389.346C116.613 393.066 119.393 396.846 123.293 396.846H141.493C144.273 396.846 146.463 394.486 146.243 391.716C145.083 376.736 142.373 331.386 147.773 288.296C147.773 288.296 126.413 280.316 108.393 239.676H108.403Z" fill="#9B8196"/>
<path d="M188.073 239.676C189.253 237.026 175.623 358.566 175.623 358.566C174.553 368.816 175.563 379.166 178.613 389.016L178.713 389.346C179.863 393.066 177.083 396.846 173.183 396.846H154.983C152.203 396.846 150.013 394.486 150.233 391.716C151.393 376.736 154.103 331.386 148.703 288.296C148.703 288.296 170.063 280.316 188.083 239.676H188.073Z" fill="#9B8196"/>
<path d="M11.8733 160.226C10.2733 159.636 8.69329 161.156 9.21329 162.786C11.8033 171.016 16.0033 191.956 7.68329 226.696C-3.20671 272.186 -15.9967 339.786 73.2233 364.766C74.8433 365.216 76.3133 363.646 75.7133 362.066C71.7233 351.516 62.0233 320.226 71.4033 285.216C84.5033 236.346 88.1833 188.106 11.8733 160.226Z" fill="url(#paint1_linear_2008_191)"/>
<defs>
<linearGradient id="paint0_linear_2008_191" x1="148.243" y1="269.336" x2="148.243" y2="422.176" gradientUnits="userSpaceOnUse">
<stop offset="0.14" stop-color="#9B8196"/>
<stop offset="0.8" stop-color="#6B4E66"/>
</linearGradient>
<linearGradient id="paint1_linear_2008_191" x1="39.3833" y1="255.126" x2="39.3833" y2="410.016" gradientUnits="userSpaceOnUse">
<stop offset="0.14" stop-color="#9B8196"/>
<stop offset="0.8" stop-color="#D8582B"/>
</linearGradient>
</defs>
</svg>
