<svg width="322" height="320" viewBox="0 0 322 320" fill="none" xmlns="http://www.w3.org/2000/svg">
<path d="M37.1733 187.425C37.1733 187.425 53.4434 267.605 39.1234 301.235C36.4334 307.555 33.9633 310.225 32.5833 313.205C31.1433 316.305 33.3733 319.865 36.7933 319.865H51.2733C52.6733 319.865 53.9934 319.245 54.8734 318.165C56.7134 315.915 59.2433 310.675 60.9433 298.505C63.8933 277.395 74.7532 210.535 74.7532 210.535C74.7532 210.535 48.7633 205.785 37.1733 187.425Z" fill="#6B4E66"/>
<path d="M18.0735 102.385C18.0735 102.385 36.6735 128.775 25.9335 166.295C25.4435 168.005 25.3735 169.795 25.6835 171.545C27.2635 180.265 28.5934 205.955 71.6534 229.295C78.6734 233.105 80.5335 239.345 81.9735 244.615C85.7535 258.445 84.5334 276.045 78.0334 300.205C75.7334 308.745 72.7935 310.555 71.4335 312.895C69.6335 315.985 71.9035 319.865 75.4835 319.865H90.0935C91.5735 319.865 92.9835 319.175 93.8435 317.965C95.8635 315.155 99.2434 308.595 101.633 294.305C105.233 272.675 110.773 237.755 110.773 237.755C110.773 237.755 129.743 231.975 158.073 217.035C159.353 216.355 160.453 218.285 159.313 219.175C150.063 226.425 134.894 242.145 140.624 264.165C145.634 283.435 160.433 295.685 168.393 302.975C170.123 304.565 168.923 307.445 166.573 307.325C161.813 307.095 154.863 306.415 147.773 304.555C146.513 304.225 145.173 304.455 144.083 305.175C142.043 306.525 138.793 309.115 136.583 312.955C134.813 316.035 137.113 319.875 140.663 319.875H216.283C218.493 319.875 220.394 318.325 220.844 316.165C223.804 301.995 230.773 249.715 186.383 203.015C134.463 148.395 116.323 163.475 93.3035 99.1453L18.0735 102.395V102.385Z" fill="url(#paint0_linear_2008_286)"/>
<mask id="mask0_2008_286" style="mask-type:luminance" maskUnits="userSpaceOnUse" x="18" y="99" width="206" height="221">
<path d="M18.0735 102.385C18.0735 102.385 36.6735 128.775 25.9335 166.295C25.4435 168.005 25.3735 169.795 25.6835 171.545C27.2635 180.265 28.5934 205.955 71.6534 229.295C78.6734 233.105 80.5335 239.345 81.9735 244.615C85.7535 258.445 84.5334 276.045 78.0334 300.205C75.7334 308.745 72.7935 310.555 71.4335 312.895C69.6335 315.985 71.9035 319.865 75.4835 319.865H90.0935C91.5735 319.865 92.9835 319.175 93.8435 317.965C95.8635 315.155 99.2434 308.595 101.633 294.305C105.233 272.675 110.773 237.755 110.773 237.755C110.773 237.755 129.743 231.975 158.073 217.035C159.353 216.355 160.453 218.285 159.313 219.175C150.063 226.425 134.894 242.145 140.624 264.165C145.634 283.435 160.433 295.685 168.393 302.975C170.123 304.565 168.923 307.445 166.573 307.325C161.813 307.095 154.863 306.415 147.773 304.555C146.513 304.225 145.173 304.455 144.083 305.175C142.043 306.525 138.793 309.115 136.583 312.955C134.813 316.035 137.113 319.875 140.663 319.875H216.283C218.493 319.875 220.394 318.325 220.844 316.165C223.804 301.995 230.773 249.715 186.383 203.015C134.463 148.395 116.323 163.475 93.3035 99.1453L18.0735 102.395V102.385Z" fill="white"/>
</mask>
<g mask="url(#mask0_2008_286)">
<path d="M117.564 126.675L84.3436 154.385C71.3636 165.205 55.3037 162.835 42.3737 151.965L4.41357 116.845L6.72363 91.4553H117.574V126.685L117.564 126.675Z" fill="#6B4E66"/>
</g>
<path d="M93.9234 2.47518L68.3235 65.4952C67.7935 66.8052 66.5235 67.6652 65.1035 67.6652H56.2634C54.8534 67.6652 53.5734 66.8052 53.0434 65.4952L27.4435 2.47518C26.4635 0.0551813 23.4034 -0.714767 21.4134 0.965233C13.0034 8.05523 -4.63652 28.2352 1.71348 69.2852C4.00348 84.1252 11.2034 100.345 16.2634 106.385C21.3334 112.455 40.4534 127.265 51.8834 135.925C57.0934 139.865 64.2735 139.865 69.4835 135.925C80.9235 127.265 100.033 112.455 105.103 106.385C110.153 100.335 117.353 84.1252 119.653 69.2852C125.993 28.2352 108.353 8.05523 99.9535 0.965233C97.9635 -0.714767 94.9034 0.0651813 93.9234 2.47518Z" fill="#9B8196"/>
<mask id="mask1_2008_286" style="mask-type:luminance" maskUnits="userSpaceOnUse" x="0" y="0" width="122" height="139">
<path d="M93.9234 2.47518L68.3235 65.4952C67.7935 66.8052 66.5235 67.6652 65.1035 67.6652H56.2634C54.8534 67.6652 53.5734 66.8052 53.0434 65.4952L27.4435 2.47518C26.4635 0.0551813 23.4034 -0.714767 21.4134 0.965233C13.0034 8.05523 -4.63652 28.2352 1.71348 69.2852C4.00348 84.1252 11.2034 100.345 16.2634 106.385C21.3334 112.455 40.4534 127.265 51.8834 135.925C57.0934 139.865 64.2735 139.865 69.4835 135.925C80.9235 127.265 100.033 112.455 105.103 106.385C110.153 100.335 117.353 84.1252 119.653 69.2852C125.993 28.2352 108.353 8.05523 99.9535 0.965233C97.9635 -0.714767 94.9034 0.0651813 93.9234 2.47518Z" fill="white"/>
</mask>
<g mask="url(#mask1_2008_286)">
<path d="M-8.84644 -6.71484H25.4236V51.8252C25.4236 62.5852 16.6936 71.3152 5.93359 71.3152H-8.84644V-6.71484Z" fill="#6B4E66"/>
<path d="M130.094 71.3152H115.313C104.553 71.3152 95.8235 62.5851 95.8235 51.8251V-6.71484H130.094V71.3152Z" fill="#6B4E66"/>
</g>
<path d="M37.1234 105.535C38.8631 105.535 40.2733 104.125 40.2733 102.385C40.2733 100.645 38.8631 99.2351 37.1234 99.2351C35.3837 99.2351 33.9734 100.645 33.9734 102.385C33.9734 104.125 35.3837 105.535 37.1234 105.535Z" fill="#100F1B"/>
<path d="M84.2534 105.535C85.9931 105.535 87.4034 104.125 87.4034 102.385C87.4034 100.645 85.9931 99.2351 84.2534 99.2351C82.5137 99.2351 81.1035 100.645 81.1035 102.385C81.1035 104.125 82.5137 105.535 84.2534 105.535Z" fill="#100F1B"/>
<path d="M35.8933 115.605C35.8933 115.605 37.5834 124.415 45.0734 130.195" stroke="#100F1B" stroke-width="1.57" stroke-linecap="round" stroke-linejoin="round"/>
<path d="M319.934 172.515C321.314 172.395 322.224 173.915 321.474 175.085C317.694 180.995 309.944 196.515 309.074 225.525C307.934 263.515 303.584 319.245 228.304 319.855C226.934 319.865 226.124 318.315 226.924 317.205C232.294 309.775 246.554 287.305 246.654 257.865C246.784 216.755 254.154 178.145 319.934 172.515Z" fill="url(#paint1_linear_2008_286)"/>
<path d="M116.303 201.655L110.783 237.755" stroke="#6B4E66" stroke-width="2" stroke-linecap="round" stroke-linejoin="round"/>
<defs>
<linearGradient id="paint0_linear_2008_286" x1="120.593" y1="99.1253" x2="120.593" y2="319.855" gradientUnits="userSpaceOnUse">
<stop offset="0.43" stop-color="#9B8196"/>
<stop offset="0.98" stop-color="#6B4E66"/>
</linearGradient>
<linearGradient id="paint1_linear_2008_286" x1="226.604" y1="246.185" x2="321.744" y2="246.185" gradientUnits="userSpaceOnUse">
<stop offset="0.14" stop-color="#9B8196"/>
<stop offset="0.8" stop-color="#D8582B"/>
</linearGradient>
</defs>
</svg>
