<svg width="185" height="397" viewBox="0 0 185 397" fill="none" xmlns="http://www.w3.org/2000/svg">
<path d="M150.173 386.776C148.863 385.396 146.863 384.946 145.083 385.616C140.283 387.416 135.953 387.076 132.913 386.356C130.353 385.746 128.803 383.136 129.453 380.586C131.253 373.576 135.273 357.676 141.083 333.656C147.553 306.906 131.993 294.836 125.613 291.116C124.093 290.226 123.323 288.476 123.653 286.746C133.023 238.246 119.613 200.506 115.263 178.486C113.033 167.176 114.593 157.966 116.693 151.616C124.373 145.326 130.953 139.546 133.873 136.056C140.293 128.376 149.443 107.776 152.353 88.9162C160.413 36.7562 138.003 11.1162 127.323 2.11616C124.793 -0.0238432 120.903 0.96617 119.663 4.03617L87.0434 84.3362C86.4234 85.8662 84.9434 86.8561 83.2934 86.8561H71.5734C69.9234 86.8561 68.4434 85.8562 67.8234 84.3362L35.2034 4.03617C33.9534 0.96617 30.0734 -0.0238432 27.5434 2.11616C16.8634 11.1162 -5.55668 36.7562 2.51332 88.9162C5.42332 107.776 14.5733 128.376 20.9933 136.056C23.9133 139.546 30.5034 145.326 38.1734 151.616C40.2734 157.966 41.8333 167.176 39.6033 178.486C35.2533 200.506 21.8433 238.246 31.2133 286.746C31.5433 288.476 30.7833 290.236 29.2533 291.116C22.8733 294.836 7.32334 306.906 13.7833 333.656C19.5833 357.676 23.6133 373.576 25.4133 380.586C26.0633 383.136 24.5134 385.746 21.9534 386.356C18.9034 387.086 14.5733 387.416 9.76332 385.616C7.99332 384.956 5.99338 385.406 4.69338 386.776C3.29338 388.246 1.74338 390.496 1.07338 393.616C0.713382 395.276 2.02328 396.846 3.72328 396.846H151.133C152.833 396.846 154.143 395.286 153.793 393.626C153.133 390.506 151.573 388.266 150.173 386.786V386.776Z" fill="url(#paint0_linear_2008_240)"/>
<path d="M172.914 160.226C174.514 159.636 176.094 161.156 175.574 162.786C172.984 171.016 168.783 191.956 177.103 226.696C187.993 272.186 200.784 339.786 111.564 364.766C109.944 365.216 108.474 363.646 109.074 362.066C113.064 351.516 122.763 320.226 113.383 285.216C100.283 236.346 96.6035 188.106 172.914 160.226Z" fill="url(#paint1_linear_2008_240)"/>
<defs>
<linearGradient id="paint0_linear_2008_240" x1="77.4333" y1="0.966161" x2="77.4333" y2="396.836" gradientUnits="userSpaceOnUse">
<stop offset="0.41" stop-color="#6B4E66"/>
<stop offset="0.95" stop-color="#402D3D"/>
</linearGradient>
<linearGradient id="paint1_linear_2008_240" x1="145.403" y1="255.126" x2="145.403" y2="410.016" gradientUnits="userSpaceOnUse">
<stop offset="0.14" stop-color="#9B8196"/>
<stop offset="0.8" stop-color="#D8582B"/>
</linearGradient>
</defs>
</svg>
