<svg width="353" height="332" viewBox="0 0 353 332" fill="none" xmlns="http://www.w3.org/2000/svg">
<path d="M126.583 260.695C128.893 258.355 128.903 254.605 126.583 252.275C120.053 245.675 105.623 232.595 87.7033 225.525C72.0933 219.365 49.9932 221.785 36.4732 221.385C12.6332 220.675 4.13327 207.695 1.14327 199.565C-0.0367308 196.345 1.81326 192.785 5.13326 191.915C12.7133 189.935 25.9933 185.025 31.6433 174.115C36.7633 164.245 47.9933 159.625 54.1433 157.765C57.1133 156.865 59.7733 155.195 61.8933 152.935L113.953 97.2852C114.973 96.1952 116.703 96.2252 117.683 97.3552C122.953 103.485 137.473 122.385 135.213 142.205C132.983 161.705 129.363 172.325 128.053 175.685C127.743 176.475 127.863 177.365 128.373 178.055C131.873 182.805 146.683 199.715 172.233 186.715C201.733 171.705 240.403 131.955 270.533 119.475C305.983 104.795 353.543 127.095 345.413 173.945C343.293 186.185 316.913 236.105 311.213 248.705C306.883 258.285 308.563 265.625 312.883 269.575C315.253 271.745 315.863 275.235 314.253 278.015C310.263 284.915 303.563 296.935 298.673 307.975C294.243 317.965 290.313 324.315 287.853 327.805C286.353 329.955 283.903 331.225 281.283 331.225H268.043C265.343 331.225 264.023 327.935 265.983 326.075C268.303 323.875 271.443 320.845 275.553 316.765C285.823 306.585 295.103 277.065 279.343 263.465C260.233 246.975 249.573 208.075 272.563 162.165C273.343 160.615 271.623 159.005 270.133 159.895C265.963 162.405 259.413 168.425 252.523 182.875C240.993 207.075 237.903 248.345 195.503 263.285C153.863 277.965 96.2432 309.135 61.1032 330.095C59.8632 330.835 58.4432 331.225 56.9932 331.225H35.6533C34.5033 331.225 33.6133 330.225 33.7133 329.085C34.5933 319.155 40.5432 320.055 51.9932 314.955C71.6732 306.195 112.993 274.435 126.563 260.685L126.583 260.695Z" fill="url(#paint0_linear_2008_273)"/>
<mask id="mask0_2008_273" style="mask-type:luminance" maskUnits="userSpaceOnUse" x="0" y="96" width="347" height="236">
<path d="M126.583 260.695C128.893 258.355 128.903 254.605 126.583 252.275C120.053 245.675 105.623 232.595 87.7033 225.525C72.0933 219.365 49.9932 221.785 36.4732 221.385C12.6332 220.675 4.13327 207.695 1.14327 199.565C-0.0367308 196.345 1.81326 192.785 5.13326 191.915C12.7133 189.935 25.9933 185.025 31.6433 174.115C36.7633 164.245 47.9933 159.625 54.1433 157.765C57.1133 156.865 59.7733 155.195 61.8933 152.935L113.953 97.2852C114.973 96.1952 116.703 96.2252 117.683 97.3552C122.953 103.485 137.473 122.385 135.213 142.205C132.983 161.705 129.363 172.325 128.053 175.685C127.743 176.475 127.863 177.365 128.373 178.055C131.873 182.805 146.683 199.715 172.233 186.715C201.733 171.705 240.403 131.955 270.533 119.475C305.983 104.795 353.543 127.095 345.413 173.945C343.293 186.185 316.913 236.105 311.213 248.705C306.883 258.285 308.563 265.625 312.883 269.575C315.253 271.745 315.863 275.235 314.253 278.015C310.263 284.915 303.563 296.935 298.673 307.975C294.243 317.965 290.313 324.315 287.853 327.805C286.353 329.955 283.903 331.225 281.283 331.225H268.043C265.343 331.225 264.023 327.935 265.983 326.075C268.303 323.875 271.443 320.845 275.553 316.765C285.823 306.585 295.103 277.065 279.343 263.465C260.233 246.975 249.573 208.075 272.563 162.165C273.343 160.615 271.623 159.005 270.133 159.895C265.963 162.405 259.413 168.425 252.523 182.875C240.993 207.075 237.903 248.345 195.503 263.285C153.863 277.965 96.2432 309.135 61.1032 330.095C59.8632 330.835 58.4432 331.225 56.9932 331.225H35.6533C34.5033 331.225 33.6133 330.225 33.7133 329.085C34.5933 319.155 40.5432 320.055 51.9932 314.955C71.6732 306.195 112.993 274.435 126.563 260.685L126.583 260.695Z" fill="white"/>
</mask>
<g mask="url(#mask0_2008_273)">
<path d="M100.033 162.705C97.5432 158.455 97.0233 153.325 98.5433 148.635C103.633 132.885 120.253 82.5652 120.253 82.5652L150.173 97.2452L137.713 151.045L129.523 177.255C129.523 177.255 107.193 174.905 100.033 162.705Z" fill="#6B4E66"/>
<path d="M70.7333 243.075L45.0133 255.535C7.35331 249.635 -7.47668 216.265 14.1433 218.645C43.8933 221.925 70.5733 213.245 86.4233 211.845C102.093 210.455 108.643 234.895 101.083 235.425C48.4133 239.145 77.7833 241.085 70.7333 243.075Z" fill="#6B4E66"/>
</g>
<path d="M231.253 1.58524C231.513 0.22524 233.223 -0.244809 234.143 0.785191C238.813 6.01519 251.683 17.6552 279.393 26.2952C315.683 37.6052 368.183 56.7852 348.523 129.465C348.163 130.785 346.453 131.155 345.603 130.075C339.893 122.905 322.083 103.125 293.753 95.1152C254.193 83.9352 218.993 66.4452 231.263 1.58524H231.253Z" fill="url(#paint1_linear_2008_273)"/>
<path d="M45.6831 186.135C45.6831 186.135 49.2831 181.195 57.0531 181.555" stroke="#100F1B" stroke-width="1.73" stroke-linecap="round" stroke-linejoin="round"/>
<path d="M24.8633 201.715C24.8633 201.715 34.6133 201.715 41.3933 194.425" stroke="#100F1B" stroke-width="1.73" stroke-linecap="round" stroke-linejoin="round"/>
<path d="M151.633 232.495C150.403 234.275 133.433 255.165 126.593 260.695" stroke="#6B4E66" stroke-width="2" stroke-linecap="round" stroke-linejoin="round"/>
<defs>
<linearGradient id="paint0_linear_2008_273" x1="173.563" y1="96.5052" x2="173.563" y2="331.245" gradientUnits="userSpaceOnUse">
<stop offset="0.43" stop-color="#9B8196"/>
<stop offset="0.98" stop-color="#6B4E66"/>
</linearGradient>
<linearGradient id="paint1_linear_2008_273" x1="293.703" y1="65.3452" x2="394.673" y2="137.365" gradientUnits="userSpaceOnUse">
<stop offset="0.14" stop-color="#9B8196"/>
<stop offset="0.8" stop-color="#D8582B"/>
</linearGradient>
</defs>
</svg>
