<svg width="322" height="320" viewBox="0 0 322 320" fill="none" xmlns="http://www.w3.org/2000/svg">
<path d="M37.1733 187.425C37.1733 187.425 53.4434 267.605 39.1234 301.235C36.4334 307.555 33.9633 310.225 32.5833 313.205C31.1433 316.305 33.3733 319.865 36.7933 319.865H51.2733C52.6733 319.865 53.9934 319.245 54.8734 318.165C56.7134 315.915 59.2433 310.675 60.9433 298.505C63.8933 277.395 74.7532 210.535 74.7532 210.535C74.7532 210.535 48.7633 205.785 37.1733 187.425Z" fill="#B2917B"/>
<path d="M18.0734 102.385C18.0734 102.385 36.6733 128.775 25.9333 166.295C25.4433 168.005 25.3733 169.795 25.6833 171.545C27.2633 180.265 28.5933 205.955 71.6533 229.295C78.6733 233.105 80.5334 239.345 81.9734 244.615C85.7534 258.445 84.5333 276.045 78.0333 300.205C75.7333 308.745 72.7934 310.555 71.4333 312.895C69.6334 315.985 71.9034 319.865 75.4834 319.865H90.0934C91.5734 319.865 92.9834 319.175 93.8434 317.965C95.8634 315.155 99.2433 308.595 101.633 294.305C105.233 272.675 110.773 237.755 110.773 237.755C110.773 237.755 129.743 231.975 158.073 217.035C159.353 216.355 160.453 218.285 159.313 219.175C150.063 226.425 134.893 242.145 140.623 264.165C145.633 283.435 160.433 295.685 168.393 302.975C170.123 304.565 168.923 307.445 166.573 307.325C161.813 307.095 154.863 306.415 147.773 304.555C146.513 304.225 145.173 304.455 144.083 305.175C142.043 306.525 138.793 309.115 136.583 312.955C134.813 316.035 137.113 319.875 140.663 319.875H216.283C218.493 319.875 220.393 318.325 220.843 316.165C223.803 301.995 230.773 249.715 186.383 203.015C134.463 148.395 116.323 163.475 93.3033 99.1453L18.0734 102.395V102.385Z" fill="url(#paint0_linear_83_252)"/>
<mask id="mask0_83_252" style="mask-type:luminance" maskUnits="userSpaceOnUse" x="18" y="99" width="206" height="221">
<path d="M18.0734 102.385C18.0734 102.385 36.6733 128.775 25.9333 166.295C25.4433 168.005 25.3733 169.795 25.6833 171.545C27.2633 180.265 28.5933 205.955 71.6533 229.295C78.6733 233.105 80.5334 239.345 81.9734 244.615C85.7534 258.445 84.5333 276.045 78.0333 300.205C75.7333 308.745 72.7934 310.555 71.4333 312.895C69.6334 315.985 71.9034 319.865 75.4834 319.865H90.0934C91.5734 319.865 92.9834 319.175 93.8434 317.965C95.8634 315.155 99.2433 308.595 101.633 294.305C105.233 272.675 110.773 237.755 110.773 237.755C110.773 237.755 129.743 231.975 158.073 217.035C159.353 216.355 160.453 218.285 159.313 219.175C150.063 226.425 134.893 242.145 140.623 264.165C145.633 283.435 160.433 295.685 168.393 302.975C170.123 304.565 168.923 307.445 166.573 307.325C161.813 307.095 154.863 306.415 147.773 304.555C146.513 304.225 145.173 304.455 144.083 305.175C142.043 306.525 138.793 309.115 136.583 312.955C134.813 316.035 137.113 319.875 140.663 319.875H216.283C218.493 319.875 220.393 318.325 220.843 316.165C223.803 301.995 230.773 249.715 186.383 203.015C134.463 148.395 116.323 163.475 93.3033 99.1453L18.0734 102.395V102.385Z" fill="white"/>
</mask>
<g mask="url(#mask0_83_252)">
<path d="M117.563 126.675L84.3434 154.385C71.3634 165.205 55.3034 162.835 42.3734 151.965L4.41333 116.845L6.72339 91.4553H117.573V126.685L117.563 126.675Z" fill="#B2917B"/>
</g>
<path d="M93.9233 2.47518L68.3233 65.4952C67.7933 66.8052 66.5234 67.6652 65.1034 67.6652H56.2633C54.8533 67.6652 53.5733 66.8052 53.0433 65.4952L27.4433 2.47518C26.4633 0.0551813 23.4033 -0.714767 21.4133 0.965233C13.0033 8.05523 -4.63664 28.2352 1.71336 69.2852C4.00336 84.1252 11.2033 100.345 16.2633 106.385C21.3333 112.455 40.4533 127.265 51.8833 135.925C57.0933 139.865 64.2734 139.865 69.4834 135.925C80.9234 127.265 100.033 112.455 105.103 106.385C110.153 100.335 117.353 84.1252 119.653 69.2852C125.993 28.2352 108.353 8.05523 99.9533 0.965233C97.9633 -0.714767 94.9033 0.0651813 93.9233 2.47518Z" fill="#D7BEAC"/>
<mask id="mask1_83_252" style="mask-type:luminance" maskUnits="userSpaceOnUse" x="0" y="0" width="122" height="139">
<path d="M93.9233 2.47518L68.3233 65.4952C67.7933 66.8052 66.5234 67.6652 65.1034 67.6652H56.2633C54.8533 67.6652 53.5733 66.8052 53.0433 65.4952L27.4433 2.47518C26.4633 0.0551813 23.4033 -0.714767 21.4133 0.965233C13.0033 8.05523 -4.63664 28.2352 1.71336 69.2852C4.00336 84.1252 11.2033 100.345 16.2633 106.385C21.3333 112.455 40.4533 127.265 51.8833 135.925C57.0933 139.865 64.2734 139.865 69.4834 135.925C80.9234 127.265 100.033 112.455 105.103 106.385C110.153 100.335 117.353 84.1252 119.653 69.2852C125.993 28.2352 108.353 8.05523 99.9533 0.965233C97.9633 -0.714767 94.9033 0.0651813 93.9233 2.47518Z" fill="white"/>
</mask>
<g mask="url(#mask1_83_252)">
<path d="M-8.84668 -6.71484H25.4233V51.8252C25.4233 62.5852 16.6933 71.3152 5.93335 71.3152H-8.84668V-6.71484Z" fill="#B2917B"/>
<path d="M130.093 71.3152H115.313C104.553 71.3152 95.8234 62.5851 95.8234 51.8251V-6.71484H130.093V71.3152Z" fill="#B2917B"/>
</g>
<path d="M37.1234 105.535C38.8631 105.535 40.2733 104.125 40.2733 102.385C40.2733 100.645 38.8631 99.2351 37.1234 99.2351C35.3837 99.2351 33.9734 100.645 33.9734 102.385C33.9734 104.125 35.3837 105.535 37.1234 105.535Z" fill="#100F1B"/>
<path d="M84.2533 105.535C85.993 105.535 87.4033 104.125 87.4033 102.385C87.4033 100.645 85.993 99.2351 84.2533 99.2351C82.5136 99.2351 81.1034 100.645 81.1034 102.385C81.1034 104.125 82.5136 105.535 84.2533 105.535Z" fill="#100F1B"/>
<path d="M35.8933 115.605C35.8933 115.605 37.5834 124.415 45.0734 130.195" stroke="#100F1B" stroke-width="1.57" stroke-linecap="round" stroke-linejoin="round"/>
<path d="M319.933 172.515C321.313 172.395 322.223 173.915 321.473 175.085C317.693 180.995 309.943 196.515 309.073 225.525C307.933 263.515 303.583 319.245 228.303 319.855C226.933 319.865 226.123 318.315 226.923 317.205C232.293 309.775 246.553 287.305 246.653 257.865C246.783 216.755 254.153 178.145 319.933 172.515Z" fill="url(#paint1_linear_83_252)"/>
<path d="M116.303 201.655L110.783 237.755" stroke="#B2917B" stroke-width="2" stroke-linecap="round" stroke-linejoin="round"/>
<defs>
<linearGradient id="paint0_linear_83_252" x1="120.593" y1="99.1253" x2="120.593" y2="319.855" gradientUnits="userSpaceOnUse">
<stop offset="0.43" stop-color="#D7BEAC"/>
<stop offset="0.98" stop-color="#B2917B"/>
</linearGradient>
<linearGradient id="paint1_linear_83_252" x1="226.603" y1="246.185" x2="321.743" y2="246.185" gradientUnits="userSpaceOnUse">
<stop offset="0.14" stop-color="#D7BEAC"/>
<stop offset="0.8" stop-color="#FF814B"/>
</linearGradient>
</defs>
</svg>
