<svg width="346" height="398" viewBox="0 0 346 398" fill="none" xmlns="http://www.w3.org/2000/svg">
<path d="M97.5833 397.606C67.9133 322.186 100.933 286.006 135.103 249.756C172.043 210.556 184.653 154.046 182.383 91.076C180.453 37.636 216.073 9.08606 227.633 1.25606C229.453 0.0260592 231.943 0.746038 232.813 2.76604C239.833 19.066 267.483 83.0861 270.823 88.5961C274.653 94.9161 286.633 94.756 297.043 103.336C313.633 117.006 311.343 136.316 342.343 142.666C345.113 143.236 346.593 146.236 345.453 148.816C341.333 158.176 328.653 178.476 292.253 176.996C276.903 176.376 265.673 175.186 260.313 174.526C258.243 174.276 256.323 175.616 255.853 177.646C253.633 187.156 248.953 214.266 259.193 242.706C259.193 242.706 261.593 255.076 231.113 287.256C221.293 297.626 215.083 309.826 214.473 323.536C213.343 349.206 225.153 377.016 231.553 390.066C233.263 393.556 230.733 397.626 226.843 397.626H208.173C205.903 397.626 203.893 396.166 203.193 394.016L176.853 313.706C171.513 297.426 156.483 287.626 139.353 287.976C133.923 288.086 128.633 289.336 123.993 291.816C123.923 291.856 123.843 291.896 123.773 291.936C122.443 292.646 123.173 294.666 124.653 294.376C125.833 294.146 127.083 293.926 128.373 293.746C158.243 289.586 180.353 319.196 168.653 349.236C163.843 361.586 157.603 373.366 153.893 379.986C152.423 382.606 154.413 385.836 157.413 385.696C167.663 385.216 174.013 381.396 180.373 384.126C184.093 385.726 185.873 391.016 186.663 394.476C187.033 396.086 185.813 397.616 184.163 397.616H97.5734L97.5833 397.606Z" fill="url(#paint0_linear_83_146)"/>
<mask id="mask0_83_146" style="mask-type:luminance" maskUnits="userSpaceOnUse" x="86" y="0" width="260" height="398">
<path d="M97.5833 397.606C67.9133 322.186 100.933 286.006 135.103 249.756C172.043 210.556 184.653 154.046 182.383 91.076C180.453 37.636 216.073 9.08606 227.633 1.25606C229.453 0.0260592 231.943 0.746038 232.813 2.76604C239.833 19.066 267.483 83.0861 270.823 88.5961C274.653 94.9161 286.633 94.756 297.043 103.336C313.633 117.006 311.343 136.316 342.343 142.666C345.113 143.236 346.593 146.236 345.453 148.816C341.333 158.176 328.653 178.476 292.253 176.996C276.903 176.376 265.673 175.186 260.313 174.526C258.243 174.276 256.323 175.616 255.853 177.646C253.633 187.156 248.953 214.266 259.193 242.706C259.193 242.706 261.593 255.076 231.113 287.256C221.293 297.626 215.083 309.826 214.473 323.536C213.343 349.206 225.153 377.016 231.553 390.066C233.263 393.556 230.733 397.626 226.843 397.626H208.173C205.903 397.626 203.893 396.166 203.193 394.016L176.853 313.706C171.513 297.426 156.483 287.626 139.353 287.976C133.923 288.086 128.633 289.336 123.993 291.816C123.923 291.856 123.843 291.896 123.773 291.936C122.443 292.646 123.173 294.666 124.653 294.376C125.833 294.146 127.083 293.926 128.373 293.746C158.243 289.586 180.353 319.196 168.653 349.236C163.843 361.586 157.603 373.366 153.893 379.986C152.423 382.606 154.413 385.836 157.413 385.696C167.663 385.216 174.013 381.396 180.373 384.126C184.093 385.726 185.873 391.016 186.663 394.476C187.033 396.086 185.813 397.616 184.163 397.616H97.5734L97.5833 397.606Z" fill="white"/>
</mask>
<g mask="url(#mask0_83_146)">
<path d="M166.163 -7.65393H231.203V72.0061C231.203 82.7661 222.473 91.4961 211.713 91.4961H166.163V-7.65393Z" fill="url(#paint1_linear_83_146)"/>
<path d="M337.733 194.766L275.163 224.646C228.933 215.586 222.213 152.846 247.483 162.006C327.453 190.986 349.743 154.846 349.743 154.846L337.723 194.776L337.733 194.766Z" fill="#B2917B"/>
</g>
<path d="M225.523 283.356C221.923 333.406 240.713 374.556 249.323 390.496C251.063 393.706 248.723 397.606 245.073 397.606H228.533C226.363 397.606 224.453 396.206 223.793 394.136L199.663 318.206L225.513 283.346L225.523 283.356Z" fill="#B2917B"/>
<path d="M292.253 134.966C294.462 134.966 296.253 133.175 296.253 130.966C296.253 128.757 294.462 126.966 292.253 126.966C290.044 126.966 288.253 128.757 288.253 130.966C288.253 133.175 290.044 134.966 292.253 134.966Z" fill="#100F1B"/>
<path d="M299.423 143.906C299.423 143.906 304.493 153.016 318.373 152.356" stroke="#100F1B" stroke-width="2" stroke-linecap="round" stroke-linejoin="round"/>
<path d="M12.5233 160.226C10.9233 159.636 9.34329 161.156 9.86329 162.786C12.4533 171.016 16.6533 191.956 8.33332 226.696C-2.55668 272.186 -15.3467 339.786 73.8733 364.766C75.4933 365.216 76.9633 363.646 76.3633 362.066C72.3733 351.516 62.6734 320.226 72.0534 285.216C85.1534 236.346 88.8333 188.106 12.5233 160.226Z" fill="url(#paint2_linear_83_146)"/>
<defs>
<linearGradient id="paint0_linear_83_146" x1="215.943" y1="0.636054" x2="215.943" y2="397.606" gradientUnits="userSpaceOnUse">
<stop offset="0.54" stop-color="#D7BEAC"/>
<stop offset="0.98" stop-color="#B2917B"/>
</linearGradient>
<linearGradient id="paint1_linear_83_146" x1="166.163" y1="41.9161" x2="231.203" y2="41.9161" gradientUnits="userSpaceOnUse">
<stop offset="0.14" stop-color="#D7BEAC"/>
<stop offset="0.8" stop-color="#B2917B"/>
</linearGradient>
<linearGradient id="paint2_linear_83_146" x1="40.0333" y1="255.126" x2="40.0333" y2="410.016" gradientUnits="userSpaceOnUse">
<stop offset="0.14" stop-color="#D7BEAC"/>
<stop offset="0.8" stop-color="#FF814B"/>
</linearGradient>
</defs>
</svg>
