<svg width="343" height="347" viewBox="0 0 343 347" fill="none" xmlns="http://www.w3.org/2000/svg">
<path d="M68.1533 237.735C68.1533 237.735 50.0733 274.285 39.7733 304.615C31.6733 328.455 24.2133 340.535 21.3933 344.615C20.6833 345.635 19.5233 346.245 18.2733 346.245H5.77331C2.64331 346.245 0.843325 342.665 2.72333 340.165C10.6433 329.675 20.4633 306.285 24.8333 279.145C30.9033 241.375 27.2133 205.815 27.0733 205.025C27.0733 205.025 38.6933 223.225 68.1433 237.725L68.1533 237.735Z" fill="#B2917B"/>
<path d="M162.903 202.435C159.273 207.025 136.283 246.065 155.433 273.125C171.713 296.125 146.363 326.655 133.483 339.795C131.123 342.195 132.843 346.245 136.213 346.245H149.943C151.203 346.245 152.373 345.625 153.083 344.585C158.443 336.695 191.823 289.185 210.533 267.785C204.973 259.145 189.783 251.535 179.953 231.725C171.083 213.835 166.163 203.445 162.893 202.425L162.903 202.435Z" fill="#B2917B"/>
<path d="M47.2833 80.5752L75.2133 2.43516C75.7333 0.975158 77.5433 0.485136 78.7233 1.47514C86.5333 8.03514 109.473 32.6952 100.573 90.5752L47.2833 80.5752Z" fill="#B2917B"/>
<path d="M27.5033 2.17516C28.9133 1.14516 30.9033 1.69514 31.4833 3.34514L61.5733 67.0652C63.9233 72.0352 68.6733 75.4952 74.1433 76.0552C83.4733 77.0152 98.4333 80.8852 107.733 95.1252C118.233 111.205 129.413 115.145 135.183 116.065C137.613 116.455 139.093 118.925 138.393 121.275C135.783 130.055 124.413 147.335 75.2833 146.965C75.2833 146.965 84.2633 158.565 113.183 160.565C142.103 162.565 161.903 162.895 192.833 164.015C223.763 165.125 233.983 200.625 235.103 244.895C235.663 266.985 243.943 280.565 254.113 285.775C257.653 287.585 259.923 291.205 260.193 295.175C260.523 300.015 261.363 307.185 263.363 316.535C266.033 328.985 266.033 338.025 265.733 342.675C265.603 344.685 263.943 346.235 261.933 346.235H247.623C244.693 346.235 242.903 343.095 244.333 340.535C246.873 336.015 249.003 328.775 246.233 318.755C241.113 300.285 224.433 280.045 208.633 272.035C192.833 264.025 179.043 237.995 171.253 221.535C163.463 205.075 144.333 206.855 129.203 226.655C129.203 226.655 133.433 233.325 125.863 240.005C120.763 244.505 108.173 257.035 100.533 264.705C96.8433 268.405 96.0533 274.105 98.5933 278.675L104.993 290.175C106.293 292.725 106.363 295.715 105.173 298.325C103.563 301.865 102.613 303.715 100.333 307.265C98.7233 309.755 95.1333 309.865 93.3333 307.505C87.5433 299.895 75.4633 283.145 73.5633 273.655C71.9233 265.435 80.0233 255.365 80.0233 255.365C80.5333 255.845 42.3433 245.225 23.1633 208.035C2.8933 168.725 -18.4667 35.5052 27.5033 2.1552V2.17516Z" fill="url(#paint0_linear_83_253)"/>
<mask id="mask0_83_253" style="mask-type:luminance" maskUnits="userSpaceOnUse" x="0" y="1" width="266" height="346">
<path d="M27.5033 2.17516C28.9133 1.14516 30.9033 1.69514 31.4833 3.34514L61.5733 67.0652C63.9233 72.0352 68.6733 75.4952 74.1433 76.0552C83.4733 77.0152 98.4333 80.8852 107.733 95.1252C118.233 111.205 129.413 115.145 135.183 116.065C137.613 116.455 139.093 118.925 138.393 121.275C135.783 130.055 124.413 147.335 75.2833 146.965C75.2833 146.965 84.2633 158.565 113.183 160.565C142.103 162.565 161.903 162.895 192.833 164.015C223.763 165.125 233.983 200.625 235.103 244.895C235.663 266.985 243.943 280.565 254.113 285.775C257.653 287.585 259.923 291.205 260.193 295.175C260.523 300.015 261.363 307.185 263.363 316.535C266.033 328.985 266.033 338.025 265.733 342.675C265.603 344.685 263.943 346.235 261.933 346.235H247.623C244.693 346.235 242.903 343.095 244.333 340.535C246.873 336.015 249.003 328.775 246.233 318.755C241.113 300.285 224.433 280.045 208.633 272.035C192.833 264.025 179.043 237.995 171.253 221.535C163.463 205.075 144.333 206.855 129.203 226.655C129.203 226.655 133.433 233.325 125.863 240.005C120.763 244.505 108.173 257.035 100.533 264.705C96.8433 268.405 96.0533 274.105 98.5933 278.675L104.993 290.175C106.293 292.725 106.363 295.715 105.173 298.325C103.563 301.865 102.613 303.715 100.333 307.265C98.7233 309.755 95.1333 309.865 93.3333 307.505C87.5433 299.895 75.4633 283.145 73.5633 273.655C71.9233 265.435 80.0233 255.365 80.0233 255.365C80.5333 255.845 42.3433 245.225 23.1633 208.035C2.8933 168.725 -18.4667 35.5052 27.5033 2.1552V2.17516Z" fill="white"/>
</mask>
<g mask="url(#mask0_83_253)">
<path d="M-0.0267639 81.585C-0.0267639 81.585 12.7132 85.665 23.3332 76.325C27.0332 73.065 29.1232 68.355 29.1532 63.425C29.2432 46.875 29.2032 -6.125 29.2032 -6.125L-3.80676 -1.53497L-8.80676 53.465L-7.00677 80.395L-0.0267639 81.595V81.585Z" fill="#B2917B"/>
<path d="M116.123 156.125C116.123 156.125 87.1932 183.835 59.9032 164.085C45.8332 153.905 52.9332 137.135 59.7032 138.615C118.513 151.455 142.823 130.645 142.823 130.645L116.123 156.125Z" fill="#B2917B"/>
</g>
<path d="M74.9333 113.155C76.916 113.155 78.5233 111.669 78.5233 109.835C78.5233 108.002 76.916 106.515 74.9333 106.515C72.9506 106.515 71.3433 108.002 71.3433 109.835C71.3433 111.669 72.9506 113.155 74.9333 113.155Z" fill="#100F1B"/>
<path d="M86.7533 120.565C86.7533 120.565 92.1733 127.505 106.863 128.635" stroke="#100F1B" stroke-width="1.73" stroke-linecap="round" stroke-linejoin="round"/>
<path d="M227.263 169.365C225.883 169.465 225.213 171.105 226.133 172.145C230.783 177.395 240.843 191.525 246.203 220.055C253.213 257.415 266.153 311.785 340.623 300.715C341.983 300.515 342.543 298.855 341.573 297.885C335.113 291.385 317.543 271.395 312.883 242.315C306.383 201.725 293.113 164.725 227.263 169.355V169.365Z" fill="url(#paint1_linear_83_253)"/>
<path d="M96.8133 226.125C96.8133 226.125 98.7833 237.325 80.0233 255.375" stroke="#B2917B" stroke-width="2" stroke-linecap="round" stroke-linejoin="round"/>
<path d="M112.953 196.425C112.953 196.425 124.983 211.545 129.193 226.655" stroke="#B2917B" stroke-width="2" stroke-linecap="round" stroke-linejoin="round"/>
<defs>
<linearGradient id="paint0_linear_83_253" x1="132.973" y1="88.2352" x2="132.973" y2="353.995" gradientUnits="userSpaceOnUse">
<stop offset="0.43" stop-color="#D7BEAC"/>
<stop offset="0.98" stop-color="#B2917B"/>
</linearGradient>
<linearGradient id="paint1_linear_83_253" x1="279.177" y1="230.623" x2="330.561" y2="345.495" gradientUnits="userSpaceOnUse">
<stop offset="0.14" stop-color="#D7BEAC"/>
<stop offset="0.8" stop-color="#FF814B"/>
</linearGradient>
</defs>
</svg>
