<svg width="251" height="195" viewBox="0 0 251 195" fill="none" xmlns="http://www.w3.org/2000/svg">
<path d="M121.173 194.825C187.878 194.825 241.953 159.603 241.953 116.155C241.953 72.7069 187.878 37.4851 121.173 37.4851C54.4684 37.4851 0.393311 72.7069 0.393311 116.155C0.393311 159.603 54.4684 194.825 121.173 194.825Z" fill="url(#paint0_linear_83_248)"/>
<path d="M219.843 3.41519L190.603 75.3952C189.993 76.8952 188.543 77.8652 186.923 77.8652H176.823C175.213 77.8652 173.753 76.8852 173.143 75.3952L143.903 3.41519C142.783 0.655187 139.293 -0.234808 137.013 1.68519C127.413 9.77519 107.263 32.8252 114.503 79.7152C117.123 96.6652 125.343 115.185 131.123 122.095C136.913 129.025 158.753 145.945 171.813 155.835C177.763 160.335 185.963 160.335 191.913 155.835C204.973 145.945 226.813 129.025 232.603 122.095C238.373 115.185 246.603 96.6652 249.223 79.7152C256.473 32.8252 236.323 9.77519 226.713 1.68519C224.433 -0.234808 220.943 0.655187 219.823 3.41519H219.843Z" fill="#D7BEAC"/>
<path d="M148.023 122.505C148.023 122.505 155.073 126.705 160.133 132.275" stroke="#100F1B" stroke-width="1.73" stroke-linecap="round" stroke-linejoin="round"/>
<path d="M215.763 122.505C215.763 122.505 208.713 126.705 203.653 132.275" stroke="#100F1B" stroke-width="1.73" stroke-linecap="round" stroke-linejoin="round"/>
<path d="M24.4933 116.155C24.4933 116.155 57.1633 99.865 88.3133 111.475C126.863 125.845 141.593 133.475 141.593 133.475" stroke="#A07B67" stroke-width="2" stroke-linecap="round" stroke-linejoin="round"/>
<defs>
<linearGradient id="paint0_linear_83_248" x1="121.173" y1="-48.9349" x2="121.173" y2="192.635" gradientUnits="userSpaceOnUse">
<stop offset="0.33" stop-color="#D7BEAC"/>
<stop offset="0.66" stop-color="#B2917B"/>
<stop offset="1" stop-color="#FF814B"/>
</linearGradient>
</defs>
</svg>
